<?xml version="1.0" encoding="UTF-8" standalone="no"?><!DOCTYPE svg PUBLIC "-//W3C//DTD SVG 1.1//EN" "http://www.w3.org/Graphics/SVG/1.1/DTD/svg11.dtd"><svg width="100%" height="100%" viewBox="0 0 260 75" version="1.1" xmlns="http://www.w3.org/2000/svg" xmlns:xlink="http://www.w3.org/1999/xlink" xml:space="preserve" xmlns:serif="http://www.serif.com/" style="fill-rule:evenodd;clip-rule:evenodd;stroke-linejoin:round;stroke-miterlimit:2;"><rect id="Mesa-de-trabajo1" serif:id="Mesa de trabajo1" x="0" y="0" width="260" height="75" style="fill:none;"/><g><g transform="matrix(49.710962,0,0,49.710962,85.096501,55.023114)"><path d="M0.07,-0l0,-0.72l0.122,0l0.238,0.478l0.238,-0.478l0.122,0l0,0.72l-0.127,-0l0,-0.43l-0.209,0.43l-0.048,-0l-0.209,-0.43l0,0.43l-0.127,-0Z" style="fill:#faf4dc;fill-rule:nonzero;"/></g><g transform="matrix(49.710962,0,0,49.710962,127.847929,55.023114)"><path d="M0.22,0.015c-0.039,0 -0.071,-0.007 -0.098,-0.022c-0.027,-0.015 -0.047,-0.035 -0.061,-0.06c-0.014,-0.025 -0.021,-0.052 -0.021,-0.082c0,-0.025 0.004,-0.048 0.012,-0.069c0.008,-0.021 0.02,-0.039 0.037,-0.055c0.017,-0.016 0.04,-0.029 0.069,-0.04c0.02,-0.007 0.044,-0.014 0.072,-0.02c0.028,-0.006 0.059,-0.011 0.094,-0.016c0.035,-0.005 0.074,-0.011 0.115,-0.017l-0.049,0.027c-0,-0.032 -0.008,-0.055 -0.023,-0.071c-0.015,-0.015 -0.041,-0.022 -0.077,-0.022c-0.02,0 -0.041,0.005 -0.062,0.015c-0.022,0.01 -0.037,0.027 -0.046,0.051l-0.123,-0.039c0.014,-0.045 0.039,-0.081 0.077,-0.109c0.038,-0.028 0.089,-0.042 0.154,-0.042c0.048,0 0.09,0.007 0.127,0.022c0.037,0.015 0.065,0.04 0.084,0.076c0.011,0.02 0.017,0.04 0.019,0.06c0.002,0.02 0.003,0.042 0.003,0.067l0,0.33l-0.119,-0l0,-0.111l0.017,0.023c-0.026,0.036 -0.055,0.063 -0.085,0.079c-0.031,0.016 -0.069,0.024 -0.116,0.024Zm0.029,-0.107c0.025,-0 0.046,-0.004 0.063,-0.013c0.017,-0.009 0.031,-0.019 0.041,-0.03c0.01,-0.011 0.017,-0.021 0.021,-0.028c0.007,-0.015 0.011,-0.032 0.012,-0.051c0.001,-0.02 0.002,-0.036 0.002,-0.049l0.04,0.01c-0.04,0.007 -0.073,0.012 -0.098,0.017c-0.025,0.005 -0.045,0.009 -0.06,0.012c-0.015,0.004 -0.029,0.008 -0.041,0.012c-0.013,0.005 -0.024,0.011 -0.032,0.017c-0.008,0.006 -0.014,0.013 -0.018,0.02c-0.004,0.007 -0.006,0.016 -0.006,0.025c0,0.012 0.003,0.023 0.009,0.032c0.006,0.009 0.015,0.016 0.026,0.02c0.011,0.005 0.025,0.007 0.041,0.007Z" style="fill:#faf4dc;fill-rule:nonzero;"/></g><g transform="matrix(49.710962,0,0,49.710962,156.82942,55.023114)"><path d="M0.438,-0l0,-0.255c0,-0.012 -0.001,-0.028 -0.002,-0.047c-0.001,-0.019 -0.005,-0.038 -0.013,-0.058c-0.007,-0.019 -0.018,-0.036 -0.034,-0.049c-0.016,-0.013 -0.038,-0.019 -0.067,-0.019c-0.012,0 -0.024,0.002 -0.037,0.006c-0.013,0.004 -0.026,0.011 -0.038,0.021c-0.012,0.011 -0.021,0.026 -0.029,0.046c-0.008,0.02 -0.011,0.047 -0.011,0.081l-0.078,-0.037c0,-0.043 0.009,-0.083 0.026,-0.12c0.017,-0.037 0.043,-0.067 0.078,-0.09c0.035,-0.023 0.079,-0.035 0.132,-0.035c0.042,0 0.077,0.007 0.104,0.022c0.027,0.014 0.047,0.032 0.062,0.054c0.015,0.022 0.025,0.045 0.032,0.069c0.006,0.024 0.01,0.046 0.012,0.065c0.001,0.02 0.002,0.034 0.002,0.043l0,0.303l-0.138,-0Zm-0.369,-0l0,-0.54l0.121,0l0,0.179l0.017,0l0,0.361l-0.138,-0Z" style="fill:#faf4dc;fill-rule:nonzero;"/></g><g transform="matrix(49.710962,0,0,49.710962,187.948482,55.023114)"><path d="M0.321,0.015c-0.055,0 -0.104,-0.012 -0.146,-0.036c-0.042,-0.024 -0.075,-0.057 -0.099,-0.099c-0.024,-0.042 -0.036,-0.09 -0.036,-0.144c0,-0.059 0.012,-0.11 0.035,-0.154c0.023,-0.044 0.056,-0.078 0.097,-0.102c0.041,-0.024 0.088,-0.036 0.141,-0.036c0.057,0 0.105,0.013 0.145,0.04c0.04,0.027 0.069,0.064 0.088,0.112c0.019,0.048 0.026,0.105 0.02,0.171l-0.135,0l0,-0.05c0,-0.055 -0.009,-0.095 -0.026,-0.119c-0.017,-0.024 -0.046,-0.036 -0.086,-0.036c-0.046,0 -0.08,0.014 -0.102,0.042c-0.022,0.028 -0.033,0.07 -0.033,0.125c0,0.05 0.011,0.089 0.033,0.117c0.022,0.027 0.054,0.041 0.096,0.041c0.027,0 0.049,-0.006 0.069,-0.018c0.019,-0.012 0.034,-0.028 0.043,-0.05l0.136,0.039c-0.02,0.049 -0.052,0.088 -0.096,0.115c-0.044,0.027 -0.092,0.041 -0.144,0.041Zm-0.179,-0.247l0,-0.101l0.358,0l0,0.101l-0.358,0Z" style="fill:#faf4dc;fill-rule:nonzero;"/></g><g transform="matrix(49.710962,0,0,49.710962,217.675637,55.023114)"><path d="M0.22,0.015c-0.039,0 -0.071,-0.007 -0.098,-0.022c-0.027,-0.015 -0.047,-0.035 -0.061,-0.06c-0.014,-0.025 -0.021,-0.052 -0.021,-0.082c0,-0.025 0.004,-0.048 0.012,-0.069c0.008,-0.021 0.02,-0.039 0.037,-0.055c0.017,-0.016 0.04,-0.029 0.069,-0.04c0.02,-0.007 0.044,-0.014 0.072,-0.02c0.028,-0.006 0.059,-0.011 0.094,-0.016c0.035,-0.005 0.074,-0.011 0.115,-0.017l-0.049,0.027c-0,-0.032 -0.008,-0.055 -0.023,-0.071c-0.015,-0.015 -0.041,-0.022 -0.077,-0.022c-0.02,0 -0.041,0.005 -0.062,0.015c-0.022,0.01 -0.037,0.027 -0.046,0.051l-0.123,-0.039c0.014,-0.045 0.039,-0.081 0.077,-0.109c0.038,-0.028 0.089,-0.042 0.154,-0.042c0.048,0 0.09,0.007 0.127,0.022c0.037,0.015 0.065,0.04 0.084,0.076c0.011,0.02 0.017,0.04 0.019,0.06c0.002,0.02 0.003,0.042 0.003,0.067l0,0.33l-0.119,-0l0,-0.111l0.017,0.023c-0.026,0.036 -0.055,0.063 -0.085,0.079c-0.031,0.016 -0.069,0.024 -0.116,0.024Zm0.029,-0.107c0.025,-0 0.046,-0.004 0.063,-0.013c0.017,-0.009 0.031,-0.019 0.041,-0.03c0.01,-0.011 0.017,-0.021 0.021,-0.028c0.007,-0.015 0.011,-0.032 0.012,-0.051c0.001,-0.02 0.002,-0.036 0.002,-0.049l0.04,0.01c-0.04,0.007 -0.073,0.012 -0.098,0.017c-0.025,0.005 -0.045,0.009 -0.06,0.012c-0.015,0.004 -0.029,0.008 -0.041,0.012c-0.013,0.005 -0.024,0.011 -0.032,0.017c-0.008,0.006 -0.014,0.013 -0.018,0.02c-0.004,0.007 -0.006,0.016 -0.006,0.025c0,0.012 0.003,0.023 0.009,0.032c0.006,0.009 0.015,0.016 0.026,0.02c0.011,0.005 0.025,0.007 0.041,0.007Z" style="fill:#faf4dc;fill-rule:nonzero;"/></g><g transform="matrix(49.710962,0,0,49.710962,246.657128,55.023114)"></g><g transform="matrix(1,0,0,0.971913,0,-1.577376)"><g transform="matrix(24.355978,0,0,24.355978,256.704918,39.969199)"></g><text x="241.97px" y="39.969px" style="font-family:'Manrope-ExtraLight', 'Manrope';font-weight:200;font-size:24.356px;fill:#ffa02c;">®</text></g><g><path d="M77.214,19.447l0,36.107c0,9.964 -8.089,18.053 -18.053,18.053l-36.107,0c-9.964,0 -18.053,-8.089 -18.053,-18.053l0,-36.107c0,-9.964 8.089,-18.053 18.053,-18.053l36.107,0c9.964,0 18.053,8.089 18.053,18.053Z" style="fill:#ffa02c;"/><path id="_-Vector-Manea-" serif:id="[Vector Manea]" d="M24.666,15.512c0.513,0.02 1.272,0.1 1.688,0.179c0.416,0.078 1.035,0.243 1.377,0.367c0.342,0.124 0.961,0.396 1.377,0.605c0.416,0.21 1.045,0.585 1.399,0.833c0.355,0.249 0.976,0.782 1.38,1.185c0.404,0.403 0.92,0.993 1.144,1.311c0.225,0.318 0.527,0.777 0.672,1.022c0.144,0.244 0.425,0.804 0.623,1.244c0.198,0.44 0.461,1.1 0.586,1.466c0.124,0.367 0.311,0.986 0.416,1.377c0.105,0.391 0.33,1.391 0.499,2.221c0.17,0.831 0.451,2.051 0.626,2.71c0.174,0.66 0.436,1.54 0.583,1.955c0.147,0.416 0.486,1.195 0.753,1.733c0.268,0.538 0.689,1.278 0.936,1.644c0.247,0.367 0.682,0.946 0.968,1.288c0.284,0.342 0.521,0.662 0.523,0.711c0.004,0.049 -0.795,0.868 -3.554,3.554l-0.432,-0.444c-0.237,-0.244 -0.645,-0.704 -0.905,-1.022c-0.26,-0.318 -0.748,-0.998 -1.083,-1.51c-0.336,-0.513 -0.845,-1.413 -1.133,-1.999c-0.287,-0.586 -0.708,-1.586 -0.936,-2.221c-0.228,-0.635 -0.567,-1.795 -0.754,-2.577c-0.187,-0.782 -0.446,-1.961 -0.576,-2.621c-0.131,-0.659 -0.352,-1.659 -0.492,-2.221c-0.139,-0.562 -0.377,-1.321 -0.527,-1.688c-0.15,-0.366 -0.482,-0.982 -0.737,-1.367c-0.256,-0.386 -0.706,-0.926 -1,-1.199c-0.294,-0.275 -0.814,-0.645 -1.155,-0.824c-0.341,-0.179 -0.86,-0.397 -1.153,-0.485c-0.373,-0.111 -0.814,-0.158 -1.466,-0.155c-0.773,0.004 -1.055,0.045 -1.644,0.245c-0.391,0.132 -0.99,0.429 -1.331,0.658c-0.35,0.235 -0.806,0.649 -1.046,0.95c-0.234,0.293 -0.542,0.753 -0.686,1.022c-0.143,0.268 -0.343,0.809 -0.443,1.199c-0.117,0.456 -0.183,0.99 -0.182,1.488c0,0.427 0.056,1.067 0.124,1.422c0.068,0.355 0.252,1.024 0.41,1.488c0.158,0.465 0.465,1.223 0.681,1.688c0.217,0.465 0.554,1.104 1.109,1.999l-0.251,0.267c-0.138,0.147 -0.554,0.586 -0.923,0.977c-0.37,0.391 -1.045,1.151 -1.502,1.688c-0.456,0.538 -0.843,0.987 -0.86,1c-0.018,0.012 -0.339,-0.467 -0.714,-1.066c-0.375,-0.599 -1.015,-1.768 -1.422,-2.599c-0.407,-0.831 -0.879,-1.95 -1.049,-2.488c-0.17,-0.538 -0.395,-1.398 -0.502,-1.91c-0.148,-0.719 -0.194,-1.26 -0.198,-2.355c-0.005,-1.059 0.035,-1.614 0.155,-2.177c0.089,-0.415 0.272,-1.075 0.407,-1.466c0.135,-0.391 0.396,-1.01 0.581,-1.377c0.184,-0.366 0.498,-0.906 0.697,-1.199c0.199,-0.293 0.683,-0.867 1.076,-1.275c0.393,-0.408 0.994,-0.954 1.336,-1.215c0.342,-0.26 0.922,-0.634 1.288,-0.828c0.367,-0.195 1.006,-0.474 1.422,-0.62c0.416,-0.146 1.095,-0.328 1.51,-0.404c0.416,-0.076 0.895,-0.156 1.066,-0.178c0.171,-0.022 0.731,-0.024 1.244,-0.004Zm33.674,0.003c0.465,0.022 1.164,0.104 1.555,0.181c0.391,0.077 1.051,0.259 1.466,0.404c0.415,0.146 1.096,0.45 1.51,0.675c0.415,0.227 1.035,0.637 1.377,0.912c0.342,0.275 0.851,0.737 1.132,1.024c0.28,0.289 0.692,0.764 0.915,1.057c0.223,0.293 0.642,1.013 0.932,1.599c0.296,0.6 0.625,1.436 0.752,1.91c0.124,0.465 0.272,1.304 0.33,1.866c0.081,0.786 0.081,1.278 0,2.132c-0.058,0.615 -0.221,1.547 -0.365,2.088c-0.143,0.538 -0.386,1.337 -0.54,1.777c-0.154,0.44 -0.51,1.279 -0.792,1.866c-0.281,0.586 -0.764,1.486 -1.074,1.999c-0.31,0.513 -0.865,1.353 -1.232,1.866c-0.368,0.513 -1.119,1.493 -1.668,2.177c-0.55,0.684 -1.406,1.744 -1.901,2.355c-0.497,0.611 -1.275,1.67 -1.73,2.355c-0.455,0.684 -1.025,1.604 -1.267,2.044c-0.242,0.44 -0.581,1.159 -0.755,1.599c-0.173,0.44 -0.383,1.059 -0.465,1.377c-0.083,0.318 -0.172,0.837 -0.2,1.155c-0.028,0.325 -0.001,0.83 0.061,1.155c0.061,0.318 0.224,0.798 0.36,1.066c0.136,0.268 0.405,0.668 0.598,0.889c0.192,0.22 0.566,0.538 0.831,0.708c0.265,0.17 0.712,0.379 0.992,0.466c0.281,0.087 0.741,0.157 1.022,0.157c0.281,-0.001 0.711,-0.053 0.955,-0.118c0.244,-0.064 0.644,-0.223 0.889,-0.354c0.244,-0.13 0.676,-0.467 0.96,-0.748c0.291,-0.289 0.631,-0.745 0.779,-1.045c0.145,-0.293 0.306,-0.813 0.358,-1.155c0.068,-0.451 0.067,-0.829 -0.007,-1.377c-0.056,-0.415 -0.243,-1.175 -0.414,-1.688c-0.171,-0.513 -0.567,-1.432 -0.879,-2.044c-0.311,-0.61 -0.814,-1.51 -1.117,-1.999c-0.507,-0.818 -0.541,-0.904 -0.427,-1.082c0.068,-0.107 0.753,-0.966 1.52,-1.91c0.769,-0.944 1.455,-1.797 1.659,-2.072l0.14,0.178c0.078,0.098 0.434,0.618 0.791,1.155c0.357,0.538 0.884,1.377 1.17,1.866c0.287,0.489 0.749,1.368 1.027,1.955c0.278,0.586 0.656,1.486 0.838,1.999c0.183,0.513 0.428,1.312 0.546,1.777c0.117,0.465 0.259,1.264 0.315,1.777c0.079,0.726 0.076,1.13 -0.012,1.821c-0.062,0.489 -0.21,1.218 -0.327,1.622c-0.118,0.403 -0.339,0.983 -0.492,1.288c-0.153,0.306 -0.458,0.835 -0.678,1.177c-0.22,0.342 -0.705,0.924 -1.078,1.294c-0.371,0.37 -0.936,0.857 -1.254,1.08c-0.318,0.225 -0.897,0.567 -1.288,0.761c-0.391,0.193 -0.911,0.416 -1.155,0.495c-0.244,0.078 -0.734,0.203 -1.088,0.278c-0.362,0.076 -1.093,0.135 -1.666,0.135c-0.562,0 -1.311,-0.057 -1.666,-0.126c-0.355,-0.069 -0.944,-0.234 -1.311,-0.366c-0.367,-0.132 -0.866,-0.341 -1.111,-0.464c-0.244,-0.124 -0.684,-0.386 -0.977,-0.586c-0.293,-0.2 -0.833,-0.649 -1.199,-0.998c-0.367,-0.349 -0.872,-0.93 -1.121,-1.292c-0.251,-0.361 -0.596,-0.936 -0.768,-1.278c-0.171,-0.342 -0.413,-0.942 -0.538,-1.333c-0.124,-0.391 -0.275,-1.151 -0.335,-1.688c-0.084,-0.76 -0.085,-1.185 -0.004,-1.91c0.058,-0.513 0.209,-1.333 0.337,-1.821c0.127,-0.489 0.386,-1.279 0.575,-1.755c0.189,-0.476 0.58,-1.336 0.868,-1.91c0.289,-0.574 0.78,-1.464 1.092,-1.977c0.312,-0.513 0.849,-1.333 1.195,-1.821c0.346,-0.489 1.064,-1.429 1.594,-2.088c0.531,-0.659 1.399,-1.739 1.929,-2.399c0.53,-0.659 1.321,-1.729 1.757,-2.377c0.436,-0.648 1.008,-1.607 1.271,-2.132c0.263,-0.525 0.605,-1.315 0.76,-1.755c0.155,-0.44 0.359,-1.19 0.455,-1.666c0.095,-0.476 0.174,-1.176 0.174,-1.555c0.001,-0.4 -0.074,-0.987 -0.178,-1.399c-0.099,-0.391 -0.298,-0.951 -0.442,-1.244c-0.145,-0.293 -0.444,-0.763 -0.666,-1.044c-0.221,-0.281 -0.692,-0.713 -1.047,-0.96c-0.406,-0.283 -0.898,-0.529 -1.333,-0.666c-0.379,-0.12 -0.999,-0.242 -1.377,-0.27c-0.471,-0.036 -0.899,-0.009 -1.355,0.087c-0.367,0.076 -1.007,0.306 -1.422,0.509c-0.601,0.294 -0.901,0.518 -1.466,1.09c-0.56,0.568 -0.808,0.909 -1.168,1.609c-0.252,0.489 -0.565,1.229 -0.695,1.644c-0.131,0.416 -0.396,1.534 -0.59,2.488c-0.195,0.953 -0.515,2.393 -0.713,3.199c-0.198,0.807 -0.521,1.926 -0.717,2.488c-0.195,0.562 -0.627,1.582 -0.96,2.266c-0.331,0.684 -0.885,1.664 -1.229,2.177c-0.345,0.513 -0.957,1.333 -1.361,1.821c-0.403,0.489 -1.898,2.048 -3.321,3.465c-1.821,1.813 -2.804,2.866 -3.318,3.554c-0.402,0.538 -0.928,1.377 -1.17,1.866c-0.242,0.489 -0.499,1.128 -0.573,1.422c-0.074,0.293 -0.133,0.693 -0.132,0.889c0.001,0.195 0.054,0.555 0.12,0.8c0.065,0.244 0.184,0.574 0.265,0.733c0.081,0.159 0.317,0.474 0.525,0.699c0.208,0.226 0.618,0.535 0.911,0.687c0.476,0.248 0.613,0.277 1.288,0.275c0.586,-0.003 0.849,-0.047 1.177,-0.199c0.232,-0.108 0.632,-0.39 0.889,-0.628c0.301,-0.279 0.561,-0.634 0.733,-1c0.24,-0.51 0.266,-0.651 0.26,-1.411c-0.004,-0.681 -0.049,-0.956 -0.229,-1.422c-0.124,-0.318 -0.397,-0.877 -0.609,-1.244c-0.211,-0.366 -0.598,-0.946 -0.86,-1.288c-0.262,-0.342 -0.476,-0.672 -0.474,-0.733c0.001,-0.061 0.811,-0.892 3.6,-3.581l0.208,0.246c0.115,0.136 0.493,0.626 0.841,1.091c0.349,0.465 0.846,1.204 1.104,1.644c0.259,0.44 0.587,1.08 0.729,1.422c0.142,0.342 0.357,0.962 0.479,1.377c0.121,0.415 0.265,1.155 0.32,1.644c0.055,0.489 0.075,1.168 0.044,1.51c-0.031,0.342 -0.128,0.922 -0.215,1.288c-0.088,0.367 -0.283,0.967 -0.433,1.333c-0.151,0.367 -0.44,0.926 -0.642,1.244c-0.203,0.318 -0.554,0.795 -0.781,1.061c-0.227,0.267 -0.712,0.721 -1.078,1.011c-0.367,0.29 -1.066,0.721 -1.555,0.958c-0.494,0.239 -1.223,0.507 -1.644,0.604c-0.415,0.095 -1.035,0.199 -1.377,0.23c-0.393,0.036 -0.95,0.008 -1.51,-0.076c-0.489,-0.074 -1.208,-0.246 -1.599,-0.384c-0.391,-0.139 -1.025,-0.431 -1.409,-0.65c-0.384,-0.219 -0.963,-0.624 -1.288,-0.897c-0.324,-0.275 -0.817,-0.794 -1.093,-1.155c-0.277,-0.362 -0.663,-0.976 -0.857,-1.367c-0.195,-0.391 -0.464,-1.051 -0.599,-1.466c-0.202,-0.625 -0.251,-0.962 -0.285,-1.955c-0.025,-0.723 0.002,-1.464 0.067,-1.866c0.06,-0.366 0.208,-0.986 0.331,-1.377c0.122,-0.391 0.394,-1.071 0.603,-1.51c0.211,-0.44 0.619,-1.159 0.908,-1.599c0.29,-0.44 0.86,-1.22 1.267,-1.733c0.408,-0.513 1.846,-2.032 3.198,-3.376c1.351,-1.343 2.758,-2.823 3.127,-3.287c0.369,-0.465 0.872,-1.144 1.118,-1.51c0.246,-0.366 0.627,-1.026 0.846,-1.466c0.219,-0.44 0.54,-1.179 0.713,-1.644c0.172,-0.465 0.456,-1.383 0.629,-2.044c0.173,-0.659 0.419,-1.739 0.547,-2.399c0.129,-0.659 0.353,-1.679 0.498,-2.266c0.147,-0.586 0.389,-1.426 0.539,-1.866c0.151,-0.44 0.443,-1.159 0.651,-1.599c0.208,-0.44 0.632,-1.179 0.942,-1.644c0.311,-0.464 0.925,-1.203 1.365,-1.644c0.44,-0.44 1.12,-1.017 1.51,-1.284c0.391,-0.267 1.111,-0.675 1.599,-0.907c0.489,-0.233 1.288,-0.528 1.777,-0.657c0.489,-0.129 1.208,-0.267 1.599,-0.307c0.391,-0.041 1.09,-0.055 1.555,-0.033Zm-29.063,11.854c0.092,-0.002 0.195,0.383 0.389,1.441c0.146,0.794 0.394,1.984 0.839,3.843l-2.753,2.71c-1.513,1.49 -3.139,3.15 -3.613,3.687c-0.474,0.538 -1.103,1.278 -1.399,1.644c-0.296,0.367 -0.798,1.026 -1.115,1.466c-0.317,0.44 -0.837,1.22 -1.155,1.733c-0.318,0.513 -0.809,1.392 -1.09,1.955c-0.283,0.562 -0.665,1.481 -0.853,2.044c-0.187,0.562 -0.388,1.382 -0.447,1.821c-0.091,0.685 -0.085,0.896 0.039,1.466c0.097,0.444 0.259,0.844 0.486,1.199c0.187,0.293 0.558,0.729 0.824,0.968c0.266,0.24 0.742,0.556 1.06,0.703c0.424,0.195 0.755,0.278 1.244,0.309c0.476,0.03 0.818,-0.002 1.199,-0.112c0.293,-0.085 0.673,-0.226 0.844,-0.313c0.171,-0.087 0.511,-0.336 0.755,-0.554c0.244,-0.218 0.584,-0.612 0.753,-0.877c0.17,-0.264 0.38,-0.74 0.466,-1.058c0.087,-0.318 0.157,-0.817 0.156,-1.111c-0.002,-0.293 -0.061,-0.813 -0.133,-1.155c-0.072,-0.342 -0.2,-0.842 -0.284,-1.111c-0.084,-0.268 -0.421,-1.029 -0.749,-1.688c-0.327,-0.659 -0.936,-1.719 -2.106,-3.51l0.588,-0.755c0.323,-0.415 0.876,-1.096 1.228,-1.51c0.352,-0.415 0.839,-0.976 1.525,-1.733l0.192,0.222c0.106,0.123 0.659,0.922 1.231,1.777c0.598,0.896 1.362,2.195 1.802,3.065c0.447,0.884 0.915,1.972 1.128,2.621c0.201,0.611 0.428,1.421 0.505,1.799c0.076,0.379 0.164,1.039 0.195,1.466c0.031,0.432 0.012,1.113 -0.044,1.533c-0.055,0.415 -0.163,0.995 -0.239,1.288c-0.076,0.293 -0.259,0.833 -0.405,1.199c-0.147,0.367 -0.452,0.967 -0.68,1.333c-0.229,0.37 -0.79,1.048 -1.261,1.522c-0.466,0.471 -1.148,1.052 -1.514,1.291c-0.367,0.24 -0.986,0.569 -1.377,0.732c-0.391,0.163 -1.011,0.38 -1.377,0.482c-0.558,0.155 -0.912,0.185 -2.177,0.183c-1.282,-0.002 -1.618,-0.032 -2.221,-0.2c-0.391,-0.108 -1.071,-0.368 -1.51,-0.576c-0.44,-0.209 -1.06,-0.557 -1.377,-0.773c-0.318,-0.217 -0.832,-0.634 -1.143,-0.928c-0.311,-0.294 -0.757,-0.794 -0.991,-1.112c-0.234,-0.318 -0.568,-0.837 -0.742,-1.155c-0.175,-0.318 -0.435,-0.897 -0.579,-1.288c-0.144,-0.391 -0.331,-1.17 -0.413,-1.733c-0.108,-0.726 -0.135,-1.254 -0.092,-1.821c0.033,-0.44 0.116,-1.08 0.187,-1.422c0.07,-0.342 0.229,-0.962 0.354,-1.377c0.124,-0.415 0.428,-1.255 0.674,-1.866c0.246,-0.61 0.669,-1.531 0.94,-2.044c0.271,-0.513 0.771,-1.392 1.112,-1.955c0.341,-0.562 0.864,-1.362 1.161,-1.777c0.298,-0.415 0.825,-1.114 1.17,-1.553c0.346,-0.439 0.922,-1.138 1.283,-1.555c0.36,-0.417 1.199,-1.334 1.866,-2.038c0.665,-0.705 2.07,-2.084 3.121,-3.066c1.05,-0.982 2.17,-2.02 2.488,-2.309c0.317,-0.289 0.877,-0.737 1.244,-0.996c0.366,-0.259 0.722,-0.473 0.791,-0.474Zm23.643,-0.003c0.049,0 0.339,0.169 0.644,0.375c0.306,0.206 0.815,0.6 1.133,0.873c0.318,0.274 1.488,1.355 4.625,4.305l-0.15,0.222c-0.083,0.123 -0.679,0.882 -1.325,1.688c-0.646,0.807 -1.294,1.606 -1.702,2.088l-0.302,-0.257c-0.165,-0.141 -1.166,-1.101 -4.142,-4.008l0.207,-0.844c0.114,-0.465 0.369,-1.594 0.566,-2.51c0.196,-0.916 0.358,-1.725 0.358,-1.799c0,-0.073 0.04,-0.133 0.089,-0.133Z" style="fill:#faf4dc;"/></g></g></svg>