<?xml version="1.0" encoding="UTF-8" standalone="no"?><!DOCTYPE svg PUBLIC "-//W3C//DTD SVG 1.1//EN" "http://www.w3.org/Graphics/SVG/1.1/DTD/svg11.dtd"><svg width="100%" height="100%" viewBox="0 0 250 75" version="1.1" xmlns="http://www.w3.org/2000/svg" xmlns:xlink="http://www.w3.org/1999/xlink" xml:space="preserve" xmlns:serif="http://www.serif.com/" style="fill-rule:evenodd;clip-rule:evenodd;stroke-linejoin:round;stroke-miterlimit:2;"><rect id="Mesa-de-trabajo1" serif:id="Mesa de trabajo1" x="0" y="0" width="250" height="75" style="fill:none;"/><clipPath id="_clip1"><rect x="0" y="0" width="250" height="75"/></clipPath><g clip-path="url(#_clip1)"><g><g transform="matrix(49.710962,0,0,49.710962,80.096501,54.523114)"><path d="M0.07,-0l0,-0.72l0.122,0l0.238,0.478l0.238,-0.478l0.122,0l0,0.72l-0.127,-0l0,-0.43l-0.209,0.43l-0.048,-0l-0.209,-0.43l0,0.43l-0.127,-0Z" style="fill-rule:nonzero;"/></g><g transform="matrix(49.710962,0,0,49.710962,122.847929,54.523114)"><path d="M0.22,0.015c-0.039,0 -0.071,-0.007 -0.098,-0.022c-0.027,-0.015 -0.047,-0.035 -0.061,-0.06c-0.014,-0.025 -0.021,-0.052 -0.021,-0.082c0,-0.025 0.004,-0.048 0.012,-0.069c0.008,-0.021 0.02,-0.039 0.037,-0.055c0.017,-0.016 0.04,-0.029 0.069,-0.04c0.02,-0.007 0.044,-0.014 0.072,-0.02c0.028,-0.006 0.059,-0.011 0.094,-0.016c0.035,-0.005 0.074,-0.011 0.115,-0.017l-0.049,0.027c-0,-0.032 -0.008,-0.055 -0.023,-0.071c-0.015,-0.015 -0.041,-0.022 -0.077,-0.022c-0.02,0 -0.041,0.005 -0.062,0.015c-0.022,0.01 -0.037,0.027 -0.046,0.051l-0.123,-0.039c0.014,-0.045 0.039,-0.081 0.077,-0.109c0.038,-0.028 0.089,-0.042 0.154,-0.042c0.048,0 0.09,0.007 0.127,0.022c0.037,0.015 0.065,0.04 0.084,0.076c0.011,0.02 0.017,0.04 0.019,0.06c0.002,0.02 0.003,0.042 0.003,0.067l0,0.33l-0.119,-0l0,-0.111l0.017,0.023c-0.026,0.036 -0.055,0.063 -0.085,0.079c-0.031,0.016 -0.069,0.024 -0.116,0.024Zm0.029,-0.107c0.025,-0 0.046,-0.004 0.063,-0.013c0.017,-0.009 0.031,-0.019 0.041,-0.03c0.01,-0.011 0.017,-0.021 0.021,-0.028c0.007,-0.015 0.011,-0.032 0.012,-0.051c0.001,-0.02 0.002,-0.036 0.002,-0.049l0.04,0.01c-0.04,0.007 -0.073,0.012 -0.098,0.017c-0.025,0.005 -0.045,0.009 -0.06,0.012c-0.015,0.004 -0.029,0.008 -0.041,0.012c-0.013,0.005 -0.024,0.011 -0.032,0.017c-0.008,0.006 -0.014,0.013 -0.018,0.02c-0.004,0.007 -0.006,0.016 -0.006,0.025c0,0.012 0.003,0.023 0.009,0.032c0.006,0.009 0.015,0.016 0.026,0.02c0.011,0.005 0.025,0.007 0.041,0.007Z" style="fill-rule:nonzero;"/></g><g transform="matrix(49.710962,0,0,49.710962,151.82942,54.523114)"><path d="M0.438,-0l0,-0.255c0,-0.012 -0.001,-0.028 -0.002,-0.047c-0.001,-0.019 -0.005,-0.038 -0.013,-0.058c-0.007,-0.019 -0.018,-0.036 -0.034,-0.049c-0.016,-0.013 -0.038,-0.019 -0.067,-0.019c-0.012,0 -0.024,0.002 -0.037,0.006c-0.013,0.004 -0.026,0.011 -0.038,0.021c-0.012,0.011 -0.021,0.026 -0.029,0.046c-0.008,0.02 -0.011,0.047 -0.011,0.081l-0.078,-0.037c0,-0.043 0.009,-0.083 0.026,-0.12c0.017,-0.037 0.043,-0.067 0.078,-0.09c0.035,-0.023 0.079,-0.035 0.132,-0.035c0.042,0 0.077,0.007 0.104,0.022c0.027,0.014 0.047,0.032 0.062,0.054c0.015,0.022 0.025,0.045 0.032,0.069c0.006,0.024 0.01,0.046 0.012,0.065c0.001,0.02 0.002,0.034 0.002,0.043l0,0.303l-0.138,-0Zm-0.369,-0l0,-0.54l0.121,0l0,0.179l0.017,0l0,0.361l-0.138,-0Z" style="fill-rule:nonzero;"/></g><g transform="matrix(49.710962,0,0,49.710962,182.948482,54.523114)"><path d="M0.321,0.015c-0.055,0 -0.104,-0.012 -0.146,-0.036c-0.042,-0.024 -0.075,-0.057 -0.099,-0.099c-0.024,-0.042 -0.036,-0.09 -0.036,-0.144c0,-0.059 0.012,-0.11 0.035,-0.154c0.023,-0.044 0.056,-0.078 0.097,-0.102c0.041,-0.024 0.088,-0.036 0.141,-0.036c0.057,0 0.105,0.013 0.145,0.04c0.04,0.027 0.069,0.064 0.088,0.112c0.019,0.048 0.026,0.105 0.02,0.171l-0.135,0l0,-0.05c0,-0.055 -0.009,-0.095 -0.026,-0.119c-0.017,-0.024 -0.046,-0.036 -0.086,-0.036c-0.046,0 -0.08,0.014 -0.102,0.042c-0.022,0.028 -0.033,0.07 -0.033,0.125c0,0.05 0.011,0.089 0.033,0.117c0.022,0.027 0.054,0.041 0.096,0.041c0.027,0 0.049,-0.006 0.069,-0.018c0.019,-0.012 0.034,-0.028 0.043,-0.05l0.136,0.039c-0.02,0.049 -0.052,0.088 -0.096,0.115c-0.044,0.027 -0.092,0.041 -0.144,0.041Zm-0.179,-0.247l0,-0.101l0.358,0l0,0.101l-0.358,0Z" style="fill-rule:nonzero;"/></g><g transform="matrix(49.710962,0,0,49.710962,212.675637,54.523114)"><path d="M0.22,0.015c-0.039,0 -0.071,-0.007 -0.098,-0.022c-0.027,-0.015 -0.047,-0.035 -0.061,-0.06c-0.014,-0.025 -0.021,-0.052 -0.021,-0.082c0,-0.025 0.004,-0.048 0.012,-0.069c0.008,-0.021 0.02,-0.039 0.037,-0.055c0.017,-0.016 0.04,-0.029 0.069,-0.04c0.02,-0.007 0.044,-0.014 0.072,-0.02c0.028,-0.006 0.059,-0.011 0.094,-0.016c0.035,-0.005 0.074,-0.011 0.115,-0.017l-0.049,0.027c-0,-0.032 -0.008,-0.055 -0.023,-0.071c-0.015,-0.015 -0.041,-0.022 -0.077,-0.022c-0.02,0 -0.041,0.005 -0.062,0.015c-0.022,0.01 -0.037,0.027 -0.046,0.051l-0.123,-0.039c0.014,-0.045 0.039,-0.081 0.077,-0.109c0.038,-0.028 0.089,-0.042 0.154,-0.042c0.048,0 0.09,0.007 0.127,0.022c0.037,0.015 0.065,0.04 0.084,0.076c0.011,0.02 0.017,0.04 0.019,0.06c0.002,0.02 0.003,0.042 0.003,0.067l0,0.33l-0.119,-0l0,-0.111l0.017,0.023c-0.026,0.036 -0.055,0.063 -0.085,0.079c-0.031,0.016 -0.069,0.024 -0.116,0.024Zm0.029,-0.107c0.025,-0 0.046,-0.004 0.063,-0.013c0.017,-0.009 0.031,-0.019 0.041,-0.03c0.01,-0.011 0.017,-0.021 0.021,-0.028c0.007,-0.015 0.011,-0.032 0.012,-0.051c0.001,-0.02 0.002,-0.036 0.002,-0.049l0.04,0.01c-0.04,0.007 -0.073,0.012 -0.098,0.017c-0.025,0.005 -0.045,0.009 -0.06,0.012c-0.015,0.004 -0.029,0.008 -0.041,0.012c-0.013,0.005 -0.024,0.011 -0.032,0.017c-0.008,0.006 -0.014,0.013 -0.018,0.02c-0.004,0.007 -0.006,0.016 -0.006,0.025c0,0.012 0.003,0.023 0.009,0.032c0.006,0.009 0.015,0.016 0.026,0.02c0.011,0.005 0.025,0.007 0.041,0.007Z" style="fill-rule:nonzero;"/></g><g transform="matrix(49.710962,0,0,49.710962,241.657128,54.523114)"></g><g transform="matrix(1,0,0,0.971913,0,-1.59142)"><g transform="matrix(24.355978,0,0,24.355978,251.704918,39.469199)"></g><text x="236.97px" y="39.469px" style="font-family:'Manrope-ExtraLight', 'Manrope';font-weight:200;font-size:24.356px;">®</text></g><g><path d="M72.214,18.947l0,36.107c0,9.964 -8.089,18.053 -18.053,18.053l-36.107,0c-9.964,0 -18.053,-8.089 -18.053,-18.053l0,-36.107c0,-9.964 8.089,-18.053 18.053,-18.053l36.107,0c9.964,0 18.053,8.089 18.053,18.053Zm-24.293,7.92c-0.049,0 -0.089,0.06 -0.089,0.133c0,0.074 -0.162,0.883 -0.358,1.799c-0.197,0.916 -0.452,2.045 -0.566,2.51l-0.207,0.844c2.976,2.907 3.977,3.867 4.142,4.008l0.302,0.257c0.409,-0.482 1.056,-1.281 1.702,-2.088c0.646,-0.806 1.242,-1.566 1.325,-1.688l0.15,-0.222c-3.136,-2.95 -4.307,-4.031 -4.625,-4.305c-0.318,-0.274 -0.827,-0.667 -1.133,-0.873c-0.306,-0.206 -0.595,-0.375 -0.644,-0.375Zm-23.643,0.003c-0.068,0.002 -0.425,0.215 -0.791,0.474c-0.367,0.259 -0.927,0.707 -1.244,0.996c-0.318,0.289 -1.438,1.327 -2.488,2.309c-1.051,0.982 -2.456,2.362 -3.121,3.066c-0.666,0.705 -1.506,1.622 -1.866,2.038c-0.361,0.417 -0.937,1.116 -1.283,1.555c-0.346,0.439 -0.873,1.138 -1.17,1.553c-0.298,0.415 -0.82,1.215 -1.161,1.777c-0.34,0.562 -0.841,1.442 -1.112,1.955c-0.271,0.513 -0.694,1.433 -0.94,2.044c-0.246,0.611 -0.55,1.451 -0.674,1.866c-0.124,0.415 -0.283,1.035 -0.354,1.377c-0.07,0.342 -0.154,0.982 -0.187,1.422c-0.043,0.568 -0.016,1.096 0.092,1.821c0.083,0.562 0.269,1.342 0.413,1.733c0.144,0.391 0.404,0.97 0.579,1.288c0.174,0.318 0.508,0.837 0.742,1.155c0.234,0.318 0.68,0.818 0.991,1.112c0.311,0.294 0.825,0.711 1.143,0.928c0.317,0.216 0.937,0.564 1.377,0.773c0.44,0.208 1.12,0.467 1.51,0.576c0.603,0.168 0.939,0.198 2.221,0.2c1.265,0.002 1.619,-0.028 2.177,-0.183c0.366,-0.102 0.986,-0.32 1.377,-0.482c0.391,-0.163 1.01,-0.492 1.377,-0.732c0.366,-0.239 1.048,-0.82 1.514,-1.291c0.471,-0.474 1.032,-1.152 1.261,-1.522c0.227,-0.366 0.533,-0.966 0.68,-1.333c0.147,-0.366 0.329,-0.906 0.405,-1.199c0.076,-0.293 0.184,-0.873 0.239,-1.288c0.056,-0.419 0.076,-1.101 0.044,-1.533c-0.031,-0.427 -0.119,-1.088 -0.195,-1.466c-0.076,-0.379 -0.304,-1.188 -0.505,-1.799c-0.213,-0.649 -0.681,-1.737 -1.128,-2.621c-0.44,-0.87 -1.204,-2.17 -1.802,-3.065c-0.571,-0.855 -1.125,-1.654 -1.231,-1.777l-0.192,-0.222c-0.686,0.757 -1.173,1.318 -1.525,1.733c-0.352,0.415 -0.904,1.096 -1.228,1.51l-0.588,0.755c1.17,1.79 1.779,2.85 2.106,3.51c0.328,0.659 0.665,1.42 0.749,1.688c0.084,0.268 0.212,0.769 0.284,1.111c0.072,0.342 0.131,0.862 0.133,1.155c0.001,0.293 -0.069,0.793 -0.156,1.111c-0.086,0.318 -0.297,0.794 -0.466,1.058c-0.17,0.265 -0.509,0.659 -0.753,0.877c-0.244,0.218 -0.585,0.466 -0.755,0.554c-0.171,0.087 -0.551,0.227 -0.844,0.313c-0.381,0.11 -0.723,0.142 -1.199,0.112c-0.489,-0.031 -0.82,-0.114 -1.244,-0.309c-0.318,-0.147 -0.794,-0.463 -1.06,-0.703c-0.266,-0.239 -0.636,-0.675 -0.824,-0.968c-0.227,-0.355 -0.389,-0.755 -0.486,-1.199c-0.124,-0.57 -0.13,-0.781 -0.039,-1.466c0.059,-0.44 0.259,-1.259 0.447,-1.821c0.187,-0.562 0.57,-1.481 0.853,-2.044c0.282,-0.562 0.772,-1.442 1.09,-1.955c0.318,-0.513 0.838,-1.293 1.155,-1.733c0.317,-0.44 0.819,-1.099 1.115,-1.466c0.296,-0.366 0.925,-1.106 1.399,-1.644c0.474,-0.538 2.1,-2.197 3.613,-3.687l2.753,-2.71c-0.444,-1.859 -0.693,-3.048 -0.839,-3.843c-0.194,-1.058 -0.298,-1.443 -0.389,-1.441Zm-4.611,-11.857c-0.513,-0.02 -1.072,-0.018 -1.244,0.004c-0.171,0.021 -0.65,0.101 -1.066,0.178c-0.416,0.076 -1.095,0.259 -1.51,0.404c-0.416,0.146 -1.055,0.425 -1.422,0.62c-0.366,0.195 -0.946,0.568 -1.288,0.828c-0.342,0.26 -0.944,0.807 -1.336,1.215c-0.393,0.408 -0.877,0.982 -1.076,1.275c-0.199,0.293 -0.514,0.833 -0.697,1.199c-0.185,0.367 -0.446,0.986 -0.581,1.377c-0.135,0.391 -0.318,1.051 -0.407,1.466c-0.121,0.562 -0.161,1.118 -0.155,2.177c0.004,1.095 0.05,1.636 0.198,2.355c0.107,0.513 0.332,1.373 0.502,1.91c0.171,0.538 0.642,1.657 1.049,2.488c0.407,0.831 1.047,2 1.422,2.599c0.376,0.599 0.697,1.079 0.714,1.066c0.017,-0.012 0.404,-0.462 0.86,-1c0.457,-0.538 1.132,-1.297 1.502,-1.688l0.923,-0.977l0.251,-0.267c-0.554,-0.895 -0.892,-1.534 -1.109,-1.999c-0.217,-0.465 -0.523,-1.223 -0.681,-1.688c-0.158,-0.465 -0.343,-1.134 -0.41,-1.488c-0.068,-0.355 -0.124,-0.994 -0.124,-1.422c-0.001,-0.498 0.065,-1.032 0.182,-1.488c0.1,-0.391 0.3,-0.931 0.443,-1.199c0.144,-0.268 0.452,-0.729 0.686,-1.022c0.24,-0.3 0.696,-0.715 1.046,-0.95c0.341,-0.229 0.94,-0.526 1.331,-0.658c0.589,-0.2 0.871,-0.242 1.644,-0.245c0.652,-0.004 1.093,0.044 1.466,0.155c0.293,0.088 0.812,0.307 1.153,0.485c0.341,0.179 0.861,0.549 1.155,0.824c0.294,0.274 0.745,0.813 1,1.199c0.256,0.386 0.587,1.001 0.737,1.367c0.15,0.367 0.387,1.127 0.527,1.688c0.14,0.562 0.362,1.562 0.492,2.221c0.13,0.66 0.389,1.839 0.576,2.621c0.187,0.782 0.526,1.941 0.754,2.577c0.228,0.635 0.649,1.635 0.936,2.221c0.288,0.586 0.797,1.486 1.133,1.999c0.335,0.513 0.823,1.192 1.083,1.51c0.26,0.318 0.668,0.777 0.905,1.022l0.432,0.444c2.759,-2.686 3.558,-3.505 3.554,-3.554c-0.003,-0.049 -0.239,-0.369 -0.523,-0.711c-0.285,-0.342 -0.721,-0.921 -0.968,-1.288c-0.247,-0.366 -0.668,-1.106 -0.936,-1.644c-0.267,-0.538 -0.607,-1.317 -0.753,-1.733c-0.147,-0.415 -0.409,-1.295 -0.583,-1.955c-0.174,-0.659 -0.456,-1.879 -0.626,-2.71c-0.17,-0.831 -0.394,-1.83 -0.499,-2.221c-0.105,-0.391 -0.292,-1.01 -0.416,-1.377c-0.124,-0.366 -0.387,-1.026 -0.586,-1.466c-0.198,-0.44 -0.479,-1 -0.623,-1.244c-0.145,-0.244 -0.447,-0.704 -0.672,-1.022c-0.224,-0.317 -0.739,-0.907 -1.144,-1.311c-0.404,-0.403 -1.025,-0.936 -1.38,-1.185c-0.355,-0.249 -0.984,-0.624 -1.399,-0.833c-0.416,-0.209 -1.035,-0.481 -1.377,-0.605c-0.342,-0.124 -0.961,-0.289 -1.377,-0.367c-0.416,-0.079 -1.175,-0.159 -1.688,-0.179Zm33.674,0.003c-0.465,-0.022 -1.164,-0.008 -1.555,0.033c-0.391,0.04 -1.111,0.179 -1.599,0.307c-0.489,0.13 -1.288,0.425 -1.777,0.657c-0.489,0.232 -1.208,0.641 -1.599,0.907c-0.391,0.267 -1.071,0.844 -1.51,1.284c-0.44,0.441 -1.054,1.18 -1.365,1.644c-0.31,0.465 -0.734,1.204 -0.942,1.644c-0.208,0.44 -0.5,1.159 -0.651,1.599c-0.15,0.44 -0.393,1.279 -0.539,1.866c-0.146,0.586 -0.37,1.606 -0.498,2.266c-0.128,0.66 -0.374,1.74 -0.547,2.399c-0.173,0.66 -0.457,1.579 -0.629,2.044c-0.173,0.465 -0.494,1.204 -0.713,1.644c-0.219,0.44 -0.6,1.1 -0.846,1.466c-0.246,0.367 -0.749,1.046 -1.118,1.51c-0.369,0.465 -1.776,1.944 -3.127,3.287c-1.351,1.344 -2.79,2.864 -3.198,3.376c-0.407,0.513 -0.977,1.293 -1.267,1.733c-0.289,0.44 -0.697,1.159 -0.908,1.599c-0.21,0.44 -0.482,1.12 -0.603,1.51c-0.123,0.391 -0.271,1.011 -0.331,1.377c-0.065,0.402 -0.092,1.143 -0.067,1.866c0.034,0.992 0.084,1.33 0.285,1.955c0.135,0.415 0.404,1.075 0.599,1.466c0.195,0.391 0.58,1.006 0.857,1.367c0.276,0.361 0.769,0.881 1.093,1.155c0.325,0.274 0.904,0.678 1.288,0.897c0.384,0.219 1.018,0.512 1.409,0.65c0.391,0.138 1.111,0.31 1.599,0.384c0.561,0.084 1.118,0.113 1.51,0.076c0.342,-0.031 0.962,-0.135 1.377,-0.23c0.42,-0.097 1.15,-0.365 1.644,-0.604c0.489,-0.237 1.188,-0.668 1.555,-0.958c0.366,-0.291 0.851,-0.745 1.078,-1.011c0.227,-0.266 0.578,-0.743 0.781,-1.061c0.203,-0.318 0.491,-0.877 0.642,-1.244c0.15,-0.366 0.345,-0.966 0.433,-1.333c0.087,-0.366 0.184,-0.946 0.215,-1.288c0.03,-0.342 0.011,-1.022 -0.044,-1.51c-0.055,-0.489 -0.199,-1.229 -0.32,-1.644c-0.122,-0.415 -0.337,-1.035 -0.479,-1.377c-0.142,-0.342 -0.47,-0.982 -0.729,-1.422c-0.259,-0.44 -0.755,-1.179 -1.104,-1.644c-0.348,-0.465 -0.727,-0.955 -0.841,-1.091l-0.208,-0.246c-2.789,2.689 -3.599,3.519 -3.6,3.581c-0.002,0.061 0.212,0.391 0.474,0.733c0.262,0.342 0.649,0.922 0.86,1.288c0.211,0.367 0.485,0.926 0.609,1.244c0.18,0.466 0.225,0.741 0.229,1.422c0.005,0.76 -0.02,0.901 -0.26,1.411c-0.172,0.366 -0.432,0.721 -0.733,1c-0.257,0.238 -0.657,0.521 -0.889,0.628c-0.328,0.152 -0.591,0.196 -1.177,0.199c-0.675,0.003 -0.812,-0.027 -1.288,-0.275c-0.293,-0.152 -0.703,-0.461 -0.911,-0.687c-0.208,-0.226 -0.444,-0.54 -0.525,-0.699c-0.081,-0.159 -0.2,-0.489 -0.265,-0.733c-0.066,-0.244 -0.119,-0.604 -0.12,-0.8c-0.001,-0.195 0.059,-0.595 0.132,-0.889c0.074,-0.293 0.331,-0.933 0.573,-1.422c0.242,-0.489 0.768,-1.328 1.17,-1.866c0.514,-0.688 1.497,-1.741 3.318,-3.554c1.423,-1.417 2.918,-2.976 3.321,-3.465c0.404,-0.489 1.016,-1.309 1.361,-1.821c0.344,-0.513 0.897,-1.493 1.229,-2.177c0.332,-0.684 0.764,-1.703 0.96,-2.266c0.196,-0.562 0.519,-1.681 0.717,-2.488c0.198,-0.806 0.519,-2.245 0.713,-3.199c0.194,-0.953 0.459,-2.072 0.59,-2.488c0.13,-0.415 0.442,-1.155 0.695,-1.644c0.361,-0.7 0.609,-1.041 1.168,-1.609c0.565,-0.572 0.865,-0.796 1.466,-1.09c0.415,-0.203 1.055,-0.433 1.422,-0.509c0.456,-0.096 0.884,-0.124 1.355,-0.087c0.379,0.028 0.999,0.15 1.377,0.27c0.434,0.138 0.927,0.384 1.333,0.666c0.355,0.247 0.825,0.679 1.047,0.96c0.222,0.281 0.522,0.751 0.666,1.044c0.145,0.293 0.344,0.853 0.442,1.244c0.104,0.412 0.179,1 0.178,1.399c0,0.379 -0.079,1.079 -0.174,1.555c-0.096,0.476 -0.3,1.226 -0.455,1.666c-0.155,0.44 -0.497,1.23 -0.76,1.755c-0.263,0.525 -0.835,1.485 -1.271,2.132c-0.436,0.648 -1.227,1.717 -1.757,2.377l-1.929,2.399c-0.53,0.659 -1.248,1.599 -1.594,2.088c-0.346,0.489 -0.883,1.309 -1.195,1.821c-0.312,0.513 -0.803,1.403 -1.092,1.977c-0.288,0.574 -0.679,1.434 -0.868,1.91c-0.188,0.476 -0.448,1.266 -0.575,1.755c-0.128,0.489 -0.279,1.309 -0.337,1.821c-0.081,0.725 -0.08,1.151 0.004,1.91c0.06,0.538 0.211,1.297 0.335,1.688c0.124,0.391 0.367,0.991 0.538,1.333c0.171,0.342 0.517,0.917 0.768,1.278c0.25,0.362 0.754,0.943 1.121,1.292c0.366,0.349 0.906,0.798 1.199,0.998c0.293,0.199 0.733,0.462 0.977,0.586c0.244,0.123 0.744,0.331 1.111,0.464c0.366,0.132 0.956,0.297 1.311,0.366c0.355,0.069 1.104,0.126 1.666,0.126c0.573,0 1.304,-0.06 1.666,-0.135c0.355,-0.075 0.844,-0.2 1.088,-0.278c0.244,-0.079 0.764,-0.302 1.155,-0.495c0.391,-0.194 0.97,-0.536 1.288,-0.761c0.318,-0.224 0.882,-0.711 1.254,-1.08c0.372,-0.37 0.857,-0.952 1.078,-1.294c0.22,-0.342 0.525,-0.872 0.678,-1.177c0.153,-0.306 0.374,-0.885 0.492,-1.288c0.117,-0.403 0.265,-1.133 0.327,-1.622c0.088,-0.691 0.091,-1.096 0.012,-1.821c-0.056,-0.513 -0.198,-1.312 -0.315,-1.777c-0.118,-0.465 -0.363,-1.264 -0.546,-1.777c-0.182,-0.513 -0.56,-1.413 -0.838,-1.999c-0.278,-0.586 -0.74,-1.466 -1.027,-1.955c-0.286,-0.489 -0.813,-1.328 -1.17,-1.866c-0.357,-0.538 -0.713,-1.057 -0.791,-1.155l-0.14,-0.178c-0.203,0.275 -0.89,1.128 -1.659,2.072c-0.768,0.944 -1.452,1.804 -1.52,1.91c-0.114,0.179 -0.08,0.264 0.427,1.082c0.303,0.489 0.806,1.389 1.117,1.999c0.312,0.611 0.707,1.531 0.879,2.044c0.171,0.513 0.358,1.273 0.414,1.688c0.074,0.548 0.076,0.926 0.007,1.377c-0.052,0.342 -0.213,0.862 -0.358,1.155c-0.148,0.3 -0.489,0.756 -0.779,1.045c-0.284,0.281 -0.716,0.618 -0.96,0.748c-0.244,0.131 -0.644,0.29 -0.889,0.354c-0.244,0.065 -0.674,0.117 -0.955,0.118c-0.281,0 -0.741,-0.07 -1.022,-0.157c-0.281,-0.087 -0.728,-0.297 -0.992,-0.466c-0.265,-0.17 -0.639,-0.488 -0.831,-0.708c-0.193,-0.22 -0.462,-0.62 -0.598,-0.889c-0.136,-0.268 -0.299,-0.748 -0.36,-1.066c-0.062,-0.325 -0.09,-0.83 -0.061,-1.155c0.028,-0.318 0.117,-0.837 0.2,-1.155c0.082,-0.318 0.291,-0.937 0.465,-1.377c0.174,-0.44 0.514,-1.159 0.755,-1.599c0.242,-0.44 0.812,-1.359 1.267,-2.044c0.455,-0.684 1.233,-1.743 1.73,-2.355c0.496,-0.61 1.351,-1.67 1.901,-2.355c0.549,-0.684 1.3,-1.664 1.668,-2.177c0.368,-0.513 0.922,-1.353 1.232,-1.866c0.31,-0.513 0.793,-1.413 1.074,-1.999c0.282,-0.586 0.638,-1.426 0.792,-1.866c0.154,-0.44 0.397,-1.239 0.54,-1.777c0.144,-0.541 0.307,-1.473 0.365,-2.088c0.081,-0.855 0.081,-1.346 0,-2.132c-0.058,-0.562 -0.206,-1.401 -0.33,-1.866c-0.127,-0.474 -0.456,-1.311 -0.752,-1.91c-0.29,-0.586 -0.709,-1.306 -0.932,-1.599c-0.223,-0.293 -0.635,-0.769 -0.915,-1.057c-0.281,-0.288 -0.79,-0.749 -1.132,-1.024c-0.342,-0.275 -0.962,-0.686 -1.377,-0.912c-0.415,-0.226 -1.096,-0.53 -1.51,-0.675c-0.415,-0.145 -1.075,-0.327 -1.466,-0.404c-0.391,-0.077 -1.09,-0.159 -1.555,-0.181Z"/></g></g></g></svg>